# xmcd
#
# Track frame offsets:
# 150
# 14047
# 29862
# 46717
# 58697
# 79362
# 92045
# 106440
# 120255
# 134950
# 151015
# 165840
# 182395
# 194892
# 207397
# 219970
#
# Disc length: 3115 seconds
#
#
# Revision: 0
# Processed by: cddbd v1.5.1PL2 Copyright (c) Steve Scherf et al.
# Submitted via: FreeRIP 2.93 
#
DISCID=e00c2910
DTITLE=Super Trucker Songs CD2
DYEAR=1900
DGENRE=Country
TTITLE0=Jonny Hill - Ich und Fred
TTITLE1=Tom Astor - Ich kann gut im Regen steh'n
TTITLE2=Gunter Gabriel - Wir sind die, an denen alles hängt
TTITLE3=NashvilleMusicCompany - Es gibt keine Kur gegen Dich
TTITLE4=Tom Astor - Es wird immer wieder Tag
TTITLE5=LCE-LadiesCountryExpress - Wo sind die Cowboys
TTITLE6=D'r drüjje Pitter - Ming Mafia
TTITLE7=Tom Astor - Ich bin verrückt nach dir
TTITLE8=Mark Bender - Stille Wasser
TTITLE9=Tom Astor - Ich bin einfach so wie du unterwegs
TTITLE10=Robert Steubl - Mein Job ist "On the Road"
TTITLE11=Tom Astor - Ich bin kein Mann für's Paradies
TTITLE12=Ecke&Co - Allgemeiner Anruf
TTITLE13=Tom Astor - Hey Robby
TTITLE14=Marc Sunny - Der kleine zahlt immer die Zeche
TTITLE15=John Belly - Trucker sind Freunde
EXTD=
EXTT0=
EXTT1=
EXTT2=
EXTT3=
EXTT4=
EXTT5=
EXTT6=
EXTT7=
EXTT8=
EXTT9=
EXTT10=
EXTT11=
EXTT12=
EXTT13=
EXTT14=
EXTT15=
PLAYORDER=
